<?xml version="1.0" standalone="no"?>
<!DOCTYPE svg PUBLIC "-//W3C//DTD SVG 20010904//EN"
 "http://www.w3.org/TR/2001/REC-SVG-20010904/DTD/svg10.dtd">
<svg version="1.0" xmlns="http://www.w3.org/2000/svg"
 viewBox="0 0 500.000000 500.000000"
 preserveAspectRatio="xMidYMid meet">

<g transform="translate(0.000000,500.000000) scale(0.100000,-0.100000)"
fill="#000000" stroke="none">
<path d="M3039 3716 c-2 -2 -128 -9 -279 -16 -151 -7 -278 -15 -283 -19 -4 -4
-4 -40 -1 -80 l7 -73 31 6 c17 3 91 6 165 8 98 2 136 -1 139 -10 3 -9 7 -8 18
2 9 9 52 16 130 21 115 7 117 8 181 50 l64 43 -64 36 c-59 32 -96 43 -108 32z"/>
<path d="M3240 3651 c0 -5 -30 -27 -67 -50 -38 -22 -64 -41 -59 -41 19 0 146
82 140 91 -7 11 -14 12 -14 0z"/>
<path d="M3082 3465 c0 -16 2 -22 5 -12 2 9 2 23 0 30 -3 6 -5 -1 -5 -18z"/>
<path d="M3082 3400 c0 -19 2 -27 5 -17 2 9 2 25 0 35 -3 9 -5 1 -5 -18z"/>
<path d="M2794 3344 c19 -19 20 -30 4 -32 -7 -1 -80 -7 -163 -14 -145 -13
-150 -14 -149 -35 0 -13 1 -48 2 -79 l2 -57 43 6 c23 3 95 9 160 13 l117 7 0
-31 c0 -34 15 -50 24 -26 9 24 7 31 -4 14 -8 -12 -10 -9 -10 12 0 24 5 27 53
37 28 5 92 13 141 16 84 7 94 10 153 49 l62 42 -64 38 -63 37 -84 -10 c-46 -5
-109 -12 -141 -16 -57 -5 -57 -5 -51 20 5 22 3 25 -21 25 -24 0 -25 -1 -11
-16z"/>
<path d="M3218 3292 c21 -10 31 -21 27 -30 -5 -13 -3 -13 11 -2 14 12 12 16
-18 31 -18 10 -37 18 -43 18 -5 0 5 -8 23 -17z"/>
<path d="M1485 2910 c-99 -6 -120 -14 -160 -62 -24 -29 -27 -38 -23 -90 3 -43
10 -65 26 -80 17 -18 24 -20 34 -10 10 10 9 18 -5 41 -19 33 -22 83 -7 112 12
22 61 49 90 49 19 0 20 -5 20 -148 0 -95 -4 -152 -11 -159 -14 -14 -3 -33 17
-33 26 0 34 48 34 200 l0 149 35 -6 c26 -4 36 -2 41 10 11 29 0 32 -91 27z"/>
<path d="M2808 2910 c12 -5 22 -15 22 -22 0 -9 3 -9 10 2 11 17 -5 30 -35 29
-18 0 -18 -1 3 -9z"/>
<path d="M2327 2892 c-14 -15 -17 -40 -17 -130 0 -143 -14 -181 -65 -182 -42
0 -46 21 -9 55 26 25 34 40 34 67 0 43 -20 63 -55 54 -33 -9 -56 -46 -63 -104
-5 -47 -16 -72 -33 -72 -5 0 -9 33 -9 74 0 101 -32 135 -80 84 l-20 -22 0 86
c0 83 -6 98 -36 98 -2 0 -4 -62 -4 -138 0 -94 -4 -142 -12 -150 -18 -18 -28
-14 -28 11 0 13 -12 39 -26 58 -18 24 -24 42 -20 62 4 19 1 30 -9 33 -22 9
-45 -14 -45 -45 0 -22 -9 -53 -36 -134 -14 -39 -29 -7 -34 69 -4 65 -8 79 -22
82 -16 3 -18 -5 -18 -57 0 -74 -14 -114 -38 -109 -14 3 -16 12 -13 53 8 111 9
110 -24 113 -16 2 -38 11 -47 19 -10 9 -24 13 -33 10 -17 -7 -20 -33 -5 -42 6
-4 10 -31 9 -61 -1 -30 1 -57 5 -61 12 -12 26 20 26 60 0 24 5 40 15 43 27 11
33 -5 18 -58 -20 -74 -7 -108 41 -108 19 0 38 5 41 10 4 7 11 8 18 2 18 -15
144 -12 189 4 50 17 48 17 48 -1 0 -8 9 -15 20 -15 18 0 20 7 20 55 0 60 22
115 45 115 12 0 15 -15 15 -73 0 -43 5 -78 12 -85 17 -17 48 -15 70 5 17 15
19 15 36 0 21 -19 74 -22 104 -6 14 8 23 8 31 0 15 -15 70 -14 85 1 9 9 15 9
24 0 15 -15 64 -16 73 -2 5 7 11 8 19 1 12 -10 116 -13 149 -4 20 5 51 68 42
83 -11 18 -21 10 -34 -25 -19 -55 -41 -45 -41 18 0 49 -12 77 -32 77 -4 0 -8
-24 -8 -53 0 -52 -12 -77 -37 -77 -16 0 -27 42 -20 72 10 37 30 58 70 72 32
11 36 15 23 25 -22 19 -81 -3 -107 -40 -11 -16 -24 -51 -27 -77 -5 -33 -12
-48 -25 -50 -15 -3 -17 6 -17 87 l0 90 52 3 c41 2 54 7 56 21 3 14 -5 17 -52
17 l-56 0 0 49 c0 45 -10 61 -36 61 -2 0 -4 -25 -4 -55 0 -30 -4 -55 -10 -55
-5 0 -10 15 -10 33 0 36 -24 77 -44 77 -7 0 -20 -8 -29 -18z m36 -99 l-10 -58
-2 70 c-1 51 2 66 10 58 8 -8 9 -28 2 -70z m57 -102 c0 -76 -22 -120 -53 -108
-23 9 -21 48 4 118 30 82 49 78 49 -10z m-190 6 c0 -13 -9 -32 -20 -42 -17
-16 -20 -16 -20 -2 0 25 19 67 30 67 5 0 10 -11 10 -23z m-342 -49 c18 -37 6
-61 -27 -53 -33 9 -32 5 -19 48 13 42 27 43 46 5z"/>
<path d="M2801 2884 c0 -11 3 -14 6 -6 3 7 2 16 -1 19 -3 4 -6 -2 -5 -13z"/>
<path d="M1723 2844 c-3 -8 2 -23 11 -32 15 -15 17 -15 32 0 21 21 11 48 -16
48 -11 0 -23 -7 -27 -16z"/>
<path d="M2820 2849 c0 -5 -4 -8 -8 -5 -4 2 -8 -64 -8 -147 -1 -86 2 -137 6
-117 l7 35 3 -35 c2 -27 5 -19 12 30 8 61 6 118 -9 199 -4 24 -2 32 6 27 6 -4
11 -1 11 8 0 9 -4 16 -10 16 -5 0 -10 -5 -10 -11z m2 -136 c2 -28 0 -49 -4
-46 -5 2 -7 34 -7 71 2 71 6 61 11 -25z"/>
</g>
</svg>
